<svg width="57" height="57" viewBox="0 0 57 57" fill="none" xmlns="http://www.w3.org/2000/svg">
<path d="M7.40857 1H10.1009L11.0545 1.05411H13.5785V3.81394H16.4952V9.22535H47.8499V31.1957H42.0165V32.0615C42.0165 32.167 42.0092 32.3348 42.0501 32.4311C42.1107 32.5745 42.8595 33.2537 43.0261 33.4144L45.2136 35.4707C45.5462 35.7916 45.9899 36.1298 46.1672 36.553L48.2986 34.5486L51.047 31.8992L52.7298 30.3299C52.8913 30.174 53.5453 29.5214 53.6833 29.4446C53.9722 29.2838 54.2263 29.6626 54.4125 29.8428L56.0391 31.3672C56.1962 31.5041 56.5478 31.7807 56.4946 32.0074C56.4603 32.1514 56.2579 32.3359 56.1513 32.4403L55.3099 33.252L52.1666 36.2873L51.2714 37.0947C51.1211 37.2359 50.9887 37.329 50.9349 37.5271C50.6617 37.6023 50.1496 38.1764 49.9252 38.3929L47.6255 40.6116L46.8402 41.3659C46.7281 41.4644 46.6114 41.577 46.4476 41.5223C46.3315 41.4839 46.1453 41.2939 46.055 41.2068L45.2136 40.341L42.0725 37.2024V40.828C42.0725 40.9411 42.0793 41.1018 42.0389 41.2068C41.9564 41.4233 41.3725 41.9363 41.1751 42.1268L38.5388 44.616L37.6414 45.4818C37.5343 45.5868 37.3267 45.7481 37.3722 45.9147C37.4069 46.0435 37.8057 46.398 37.9218 46.51L39.3241 47.917L40.7802 49.3239L41.4556 50.0274C41.5952 50.1627 42.0647 50.6746 42.2408 50.6746C42.3867 50.6746 42.5903 50.4473 42.6895 50.3521L43.7553 49.3391L45.1575 48.0252L47.0646 46.1853L48.0181 45.2654C48.1309 45.1566 48.3883 44.8904 48.523 44.8368C48.7799 44.7345 49.0351 45.056 49.196 45.2113L50.8788 46.8347C51.0369 46.9873 51.4548 47.3006 51.3752 47.5382C51.323 47.6919 50.9539 48.009 50.8227 48.134L49.4765 49.4322L44.6527 54.086L43.1383 55.5471C43.0037 55.6769 42.7159 56 42.5213 56C42.3266 56 42.0389 55.6769 41.9043 55.5471L40.5581 54.2505L40.0533 53.8132L36.4635 50.3521L35.6221 49.5945L34.5564 48.5663C34.1425 48.167 34.0886 47.9722 33.4907 47.9711H20.5338C20.4165 47.9711 20.2499 47.9646 20.1411 48.0036C19.9128 48.0847 19.4501 48.5923 19.2437 48.7779L16.7196 51.1638L15.8222 52.0286C15.7021 52.1395 15.5574 52.2986 15.3734 52.2369C15.2416 52.1931 14.9769 51.9176 14.8686 51.8132L13.859 50.8391L11.8397 48.8916L11.2788 48.4018L10.2131 47.3758C9.97864 47.8547 9.26741 48.3975 8.86692 48.7828L7.74511 49.8115L5.83803 51.6487L4.8284 52.5708C4.71285 52.6817 4.48008 52.9312 4.32358 52.9637C4.08688 53.0124 3.75034 52.613 3.59441 52.4626L1.96778 50.9474C1.81914 50.804 1.45567 50.5193 1.50447 50.298C1.54205 50.1297 1.94142 49.7823 2.07996 49.6486L3.6505 48.1875L5.83747 46.1123L6.94133 45.044L7.62339 44.4764L8.75474 43.3714C9.13672 43.0029 9.51757 42.6711 9.82046 42.235C10.2445 42.3551 10.8357 43.0494 11.1666 43.3714L14.0273 46.1853L15.0369 47.1594C15.1362 47.2546 15.3398 47.4819 15.4856 47.4819C15.6387 47.4819 15.8839 47.2081 15.9904 47.1053L17.2244 45.9147C16.654 45.5208 15.0459 43.813 14.4199 43.209C14.2225 43.0186 13.6385 42.5056 13.5561 42.2891C13.5157 42.1841 13.5224 42.0234 13.5224 41.9103V33.6849H12.2884C12.1712 33.6849 12.0046 33.6785 11.8958 33.7174C11.7174 33.7807 11.5262 33.9874 11.391 34.1179L10.6057 34.8755L9.76381 35.7413L6.90375 38.5011L6.28451 39.1505L5.22103 40.1786C5.07183 40.3226 4.78184 40.6803 4.54795 40.6024C4.39931 40.5526 3.95507 40.0937 3.81877 39.9622L2.36041 38.6093C2.20448 38.4589 1.781 38.1402 1.86513 37.9059C1.91674 37.7624 2.39239 37.3339 2.52869 37.2024L4.04313 35.7413L7.91338 32.0074L8.92301 31.0875L9.48897 30.4944L10.2131 29.8434C10.4548 29.6166 10.7886 29.2849 11.1105 29.1935C11.2839 29.4272 11.7881 29.989 12.0641 30.0593C12.1252 30.2655 12.3019 30.397 12.4567 30.5463C12.7658 30.845 13.0631 31.2525 13.5224 31.3039V6.51964H9.42783H7.40857V1ZM16.327 3.97628H16.2709L16.327 4.03039V3.97628ZM13.8029 6.46553H13.7468L13.8029 6.51964V6.46553ZM10.9984 6.84433H11.0545L10.9984 6.89844V6.84433ZM47.6816 9.82061H47.6255L47.6816 9.87472V9.82061ZM16.4391 11.7687H16.3831L16.4391 11.8228V11.7687ZM30.574 11.7687H30.5179L30.574 11.8228V11.7687ZM27.8816 11.8769H16.4952V15.2861H19.9168C20.0654 15.2867 20.2292 15.2759 20.3655 15.3413C20.5175 15.4149 20.7334 15.6449 20.8703 15.764L21.8238 16.639C22.0684 16.8738 22.7555 17.4042 22.8559 17.6672C22.8963 17.7721 22.8896 17.9329 22.8896 18.046V22.2669C22.8896 22.38 22.8963 22.5407 22.8559 22.6457C22.7701 22.8702 22.0134 23.5353 21.7913 23.7821L21.0386 24.5397C20.9034 24.6701 20.7121 24.8768 20.5338 24.9401C20.4249 24.9791 20.2584 24.9726 20.1411 24.9726H16.5513V28.1653H14.3638V34.7672H16.5008V41.748V42.2891L17.2244 43.0467L18.851 44.616L19.6924 45.3411L20.085 45.3736H36.183L36.5594 45.3455L37.0048 44.9834L37.7536 44.2589L39.8289 42.2566L41.1751 40.9904L41.119 39.7998V37.7435V31.1957H27.8816V11.8769ZM45.1014 11.8769H30.6301V28.5982H45.1014V11.8769ZM19.8046 17.7754H19.7485L19.8046 17.8295V17.7754ZM19.9168 17.9918H16.4952V22.321H19.9168V17.9918ZM34.1638 19.1407C34.3449 19.1293 34.4869 19.1266 34.6686 19.1407C34.958 19.1315 35.1857 19.1732 35.4539 19.2841C37.1826 20.0006 37.2757 22.3161 35.6221 23.1695C35.2289 23.3724 34.9361 23.4076 34.5003 23.4033C32.9965 23.3865 31.9841 21.8805 32.4861 20.5352C32.7638 19.7901 33.3751 19.3225 34.1638 19.1407ZM41.0629 19.1407C41.2441 19.1293 41.386 19.1266 41.5677 19.1407C41.8572 19.1315 42.0849 19.1732 42.353 19.2841C44.0817 20.0006 44.1748 22.3161 42.5213 23.1695C42.1281 23.3724 41.8353 23.4076 41.3995 23.4033C39.8957 23.3865 38.8832 21.8805 39.3852 20.5352C39.6629 19.7901 40.2743 19.3225 41.0629 19.1407ZM20.085 22.4292H20.0289L20.085 22.4833V22.4292ZM10.9423 29.5723H10.8862L10.9423 29.6264V29.5723ZM10.8862 29.6264H10.8301L10.8862 29.6805V29.6264ZM53.4028 30.0593H53.2907L53.2346 30.1675L53.2907 30.2216L53.4028 30.0593ZM47.6816 30.7628H47.6255L47.6816 30.8169V30.7628ZM28.106 30.871H28.0499L28.106 30.9251V30.871ZM14.7564 30.9251H20.9825V33.5767H14.7564V30.9251ZM22.1604 30.9251H24.9088V37.5271H22.1604V30.9251ZM24.7406 31.0875H24.6845L24.7406 31.1416V31.0875ZM55.5343 31.2498H55.4782L55.5343 31.3039V31.2498ZM8.30602 31.9533H8.24993L8.30602 32.0074V31.9533ZM8.08165 32.1698H8.02556L8.08165 32.2239V32.1698ZM41.9604 32.6568H41.9043L41.9604 32.7109V32.6568ZM55.5904 32.6568H55.5343L55.5904 32.7109V32.6568ZM12.2884 33.1438H12.1763L12.1202 33.3061L12.2884 33.1438ZM13.6346 33.3603H13.5785L13.6346 33.4144V33.3603ZM6.23066 33.9555H6.17457L6.23066 34.0096V33.9555ZM35.8465 34.7672H38.651V42.3973H27.9938L28.0499 39.5834L27.9938 38.6634V36.8236L28.0499 36.0119L27.9938 34.8213H30.574V39.7457H35.8465V34.7672ZM16.327 34.9296H16.2709L16.327 34.9837V34.9296ZM38.2023 34.9296H38.1462L38.2023 34.9837V34.9296ZM53.1224 35.0378H53.0663L53.1224 35.0919V35.0378ZM9.37174 35.5248H9.25956L9.20346 35.6872L9.37174 35.5248ZM46.7281 36.4989H46.5598V36.6612H46.7281V36.4989ZM6.17457 38.934H6.11848L6.17457 38.9881V38.934ZM5.55758 39.5293H5.50149L5.55758 39.5834V39.5293ZM5.38931 39.6916H5.33321L5.38931 39.7457V39.6916ZM30.2374 39.6916H30.1253L30.0692 39.854L30.2374 39.6916ZM30.574 39.9081H30.5179L30.574 39.9622V39.9081ZM4.94058 40.1245H4.88449L4.94058 40.1786V40.1245ZM45.9428 40.7198H45.8867L45.9428 40.7739V40.7198ZM46.055 40.828H45.9989L46.055 40.8821V40.828ZM46.1672 40.9362H46.1111L46.1672 40.9904V40.9362ZM46.2793 41.0445H46.2232L46.2793 41.0986V41.0445ZM46.3354 41.0986H46.2793L46.3354 41.1527V41.0986ZM46.5037 41.2609H46.4476L46.5037 41.315V41.2609ZM46.5598 41.315H46.5037L46.5598 41.3692V41.315ZM11.2788 43.7502H11.2227L11.2788 43.8043V43.7502ZM12.4006 44.8325H12.3445L12.4006 44.8866V44.8325ZM37.9218 46.7806H37.8658L37.9218 46.8347V46.7806ZM37.9779 46.8347H37.9218L37.9779 46.8888V46.8347ZM38.0901 46.9429H38.034L38.0901 46.997V46.9429ZM38.1462 46.997H38.0901L38.1462 47.0511V46.997ZM38.2023 47.0511H38.1462L38.2023 47.1053V47.0511ZM38.2584 47.1053H38.2023L38.2584 47.1594V47.1053ZM38.3145 47.1594H38.2584L38.3145 47.2135V47.1594ZM10.3814 47.2135H10.3253L10.3814 47.2676V47.2135ZM15.6539 47.7546H15.5978L15.6539 47.8087V47.7546ZM12.008 48.6746H11.9519L12.008 48.7287V48.6746ZM12.2324 48.891H12.1763L12.2324 48.9451V48.891ZM12.625 49.2698H12.5689L12.625 49.3239V49.2698ZM43.8674 49.5404H43.8114L43.8674 49.5945V49.5404ZM43.8114 49.5945H43.7553L43.8114 49.6486V49.5945ZM43.6431 49.7569H43.587L43.6431 49.811V49.7569ZM43.4748 49.9192H43.4187L43.4748 49.9733V49.9192ZM43.4187 49.9733H43.3626L43.4187 50.0274V49.9733ZM43.2505 50.1357H43.1944L43.2505 50.1898V50.1357ZM37.4731 50.6227C37.3957 50.4311 37.3385 50.4398 37.1366 50.4062C37.2448 50.5799 37.2706 50.5799 37.4731 50.6227ZM1.8556 50.4603H1.79951L1.8556 50.5145V50.4603ZM16.7757 50.5145H16.7196L16.7757 50.5686V50.5145ZM42.8017 50.5686H42.7456L42.8017 50.6227V50.5686ZM2.30432 50.8932H2.24823L2.30432 50.9474V50.8932ZM37.9218 51.0015L37.7536 51.1097L37.9218 51.1638V51.0015ZM2.92132 51.4885H2.86523L2.92132 51.5426V51.4885ZM44.4844 53.8695H44.4284L44.4844 53.9236V53.8695ZM44.1479 54.0319H44.0918L44.1479 54.086V54.0319ZM40.9507 54.2483H40.8946L40.9507 54.3024V54.2483Z" fill="black"/>
<path d="M27.8255 11.6605L27.3768 11.7146M45.0453 11.6605L44.4844 11.7146M16.327 12.0393V12.364M20.2533 17.7213L20.085 17.8836M49.8691 33.6308L49.7009 33.4685M47.9621 35.2543L47.7938 35.4166M45.1575 39.9081L45.2697 40.0704M45.7745 40.5033L45.8867 40.6657M46.2793 41.0986L46.2232 41.0445H46.2793V41.0986ZM46.2793 41.0986H46.3354V41.1527L46.2793 41.0986ZM46.5037 41.315L46.4476 41.2609H46.5037V41.315ZM46.5037 41.315H46.5598V41.3692L46.5037 41.315ZM37.9218 46.8347L37.8658 46.7806H37.9218V46.8347ZM37.9218 46.8347H37.9779V46.8888L37.9218 46.8347ZM38.0901 46.997L38.034 46.9429H38.0901V46.997ZM38.0901 46.997H38.1462V47.0511M38.0901 46.997L38.1462 47.0511M38.1462 47.0511H38.2023V47.1053M38.1462 47.0511L38.2023 47.1053M38.2023 47.1053H38.2584V47.1594M38.2023 47.1053L38.2584 47.1594M38.2584 47.1594H38.3145V47.2135L38.2584 47.1594ZM7.40857 1H10.1009L11.0545 1.05411H13.5785V3.81394H16.4952V9.22535H47.8499V31.1957H42.0165V32.0615C42.0165 32.167 42.0092 32.3348 42.0501 32.4311C42.1107 32.5745 42.8595 33.2537 43.0261 33.4144L45.2136 35.4707C45.5462 35.7916 45.9899 36.1298 46.1672 36.553L48.2986 34.5486L51.047 31.8992L52.7298 30.3299C52.8913 30.174 53.5453 29.5214 53.6833 29.4446C53.9722 29.2838 54.2263 29.6626 54.4125 29.8428L56.0391 31.3672C56.1962 31.5041 56.5478 31.7807 56.4946 32.0074C56.4603 32.1514 56.2579 32.3359 56.1513 32.4403L55.3099 33.252L52.1666 36.2873L51.2714 37.0947C51.1211 37.2359 50.9887 37.329 50.9349 37.5271C50.6617 37.6023 50.1496 38.1764 49.9252 38.3929L47.6255 40.6116L46.8402 41.3659C46.7281 41.4644 46.6114 41.577 46.4476 41.5223C46.3315 41.4839 46.1453 41.2939 46.055 41.2068L45.2136 40.341L42.0725 37.2024V40.828C42.0725 40.9411 42.0793 41.1018 42.0389 41.2068C41.9564 41.4233 41.3725 41.9363 41.1751 42.1268L38.5388 44.616L37.6414 45.4818C37.5343 45.5868 37.3267 45.7481 37.3722 45.9147C37.4069 46.0435 37.8057 46.398 37.9218 46.51L39.3241 47.917L40.7802 49.3239L41.4555 50.0274C41.5952 50.1627 42.0647 50.6746 42.2408 50.6746C42.3867 50.6746 42.5903 50.4473 42.6895 50.3521L43.7553 49.3391L45.1575 48.0252L47.0646 46.1853L48.0181 45.2654C48.1309 45.1566 48.3883 44.8904 48.523 44.8368C48.7799 44.7345 49.0351 45.056 49.1961 45.2113L50.8788 46.8347C51.0369 46.9873 51.4548 47.3006 51.3752 47.5382C51.323 47.6919 50.9539 48.009 50.8227 48.134L49.4765 49.4322L44.6527 54.086L43.1383 55.5471C43.0036 55.6769 42.7159 56 42.5213 56C42.3266 56 42.0389 55.6769 41.9043 55.5471L40.5581 54.2505L40.0533 53.8132L36.4635 50.3521L35.6221 49.5945L34.5564 48.5663C34.1425 48.167 34.0886 47.9722 33.4907 47.9711H20.5338C20.4165 47.9711 20.2499 47.9646 20.1411 48.0036C19.9128 48.0847 19.4501 48.5923 19.2437 48.7779L16.7196 51.1638L15.8222 52.0286C15.7021 52.1395 15.5574 52.2986 15.3734 52.2369C15.2416 52.1931 14.9769 51.9176 14.8686 51.8132L13.859 50.8391L11.8397 48.8916L11.2788 48.4018L10.2131 47.3758C9.97864 47.8547 9.26741 48.3975 8.86692 48.7828L7.74511 49.8115L5.83803 51.6487L4.8284 52.5708C4.71285 52.6817 4.48008 52.9312 4.32358 52.9637C4.08688 53.0124 3.75034 52.613 3.59441 52.4626L1.96778 50.9474C1.81914 50.804 1.45567 50.5193 1.50447 50.298C1.54205 50.1297 1.94142 49.7823 2.07996 49.6486L3.6505 48.1875L5.83747 46.1123L6.94133 45.044L7.62339 44.4764L8.75474 43.3714C9.13672 43.0029 9.51757 42.6711 9.82046 42.235C10.2445 42.3551 10.8357 43.0494 11.1666 43.3714L14.0273 46.1853L15.0369 47.1594C15.1362 47.2546 15.3398 47.4819 15.4856 47.4819C15.6387 47.4819 15.8839 47.2081 15.9904 47.1053L17.2244 45.9147C16.654 45.5208 15.0459 43.813 14.4199 43.209C14.2225 43.0186 13.6385 42.5056 13.5561 42.2891C13.5157 42.1841 13.5224 42.0234 13.5224 41.9103V33.6849H12.2884C12.1712 33.6849 12.0046 33.6785 11.8958 33.7174C11.7174 33.7807 11.5262 33.9874 11.391 34.1179L10.6057 34.8755L9.76381 35.7413L6.90375 38.5011L6.28451 39.1505L5.22103 40.1786C5.07183 40.3226 4.78184 40.6803 4.54795 40.6024C4.39931 40.5526 3.95507 40.0937 3.81877 39.9622L2.36041 38.6093C2.20448 38.4589 1.781 38.1402 1.86513 37.9059C1.91674 37.7624 2.39239 37.3339 2.52869 37.2024L4.04313 35.7413L7.91338 32.0074L8.92301 31.0875L9.48897 30.4944L10.2131 29.8434C10.4548 29.6166 10.7886 29.2849 11.1105 29.1935C11.2839 29.4272 11.7881 29.989 12.0641 30.0593C12.1252 30.2655 12.3019 30.397 12.4567 30.5463C12.7658 30.845 13.0631 31.2525 13.5224 31.3039V6.51964H9.42783H7.40857V1ZM16.327 3.97628H16.2709L16.327 4.03039V3.97628ZM13.8029 6.46553H13.7468L13.8029 6.51964V6.46553ZM10.9984 6.84433H11.0545L10.9984 6.89844V6.84433ZM47.6816 9.82061H47.6255L47.6816 9.87472V9.82061ZM16.4392 11.7687H16.3831L16.4392 11.8228V11.7687ZM30.574 11.7687H30.5179L30.574 11.8228V11.7687ZM27.8816 11.8769H16.4952V15.2861H19.9168C20.0654 15.2867 20.2292 15.2759 20.3655 15.3413C20.5175 15.4149 20.7334 15.6449 20.8703 15.764L21.8238 16.639C22.0684 16.8738 22.7555 17.4042 22.8559 17.6672C22.8963 17.7721 22.8896 17.9329 22.8896 18.046V22.2669C22.8896 22.38 22.8963 22.5407 22.8559 22.6457C22.7701 22.8702 22.0134 23.5353 21.7913 23.7821L21.0386 24.5397C20.9034 24.6701 20.7121 24.8768 20.5338 24.9401C20.4249 24.9791 20.2584 24.9726 20.1411 24.9726H16.5513V28.1653H14.3638V34.7672H16.5009V41.748V42.2891L17.2244 43.0467L18.851 44.616L19.6924 45.3411L20.085 45.3736H36.183L36.5594 45.3455L37.0048 44.9834L37.7536 44.2589L39.8289 42.2566L41.1751 40.9904L41.119 39.7998V37.7435V31.1957H27.8816V11.8769ZM45.1014 11.8769H30.6301V28.5982H45.1014V11.8769ZM19.8046 17.7754H19.7485L19.8046 17.8295V17.7754ZM19.9168 17.9918H16.4952V22.321H19.9168V17.9918ZM34.1638 19.1407C34.3449 19.1293 34.4869 19.1266 34.6686 19.1407C34.958 19.1315 35.1857 19.1732 35.4539 19.2841C37.1826 20.0006 37.2757 22.3161 35.6221 23.1695C35.2289 23.3724 34.9361 23.4076 34.5003 23.4033C32.9965 23.3865 31.9841 21.8805 32.4861 20.5352C32.7638 19.7901 33.3751 19.3225 34.1638 19.1407ZM41.0629 19.1407C41.2441 19.1293 41.386 19.1266 41.5677 19.1407C41.8572 19.1315 42.0849 19.1732 42.353 19.2841C44.0817 20.0006 44.1748 22.3161 42.5213 23.1695C42.1281 23.3724 41.8353 23.4076 41.3995 23.4033C39.8957 23.3865 38.8832 21.8805 39.3852 20.5352C39.6629 19.7901 40.2743 19.3225 41.0629 19.1407ZM20.085 22.4292H20.0289L20.085 22.4833V22.4292ZM10.9423 29.5723H10.8862L10.9423 29.6264V29.5723ZM10.8862 29.6264H10.8301L10.8862 29.6805V29.6264ZM53.4028 30.0593H53.2907L53.2346 30.1675L53.2907 30.2216L53.4028 30.0593ZM47.6816 30.7628H47.6255L47.6816 30.8169V30.7628ZM28.106 30.871H28.0499L28.106 30.9251V30.871ZM14.7564 30.9251H20.9825V33.5767H14.7564V30.9251ZM22.1604 30.9251H24.9088V37.5271H22.1604V30.9251ZM24.7406 31.0875H24.6845L24.7406 31.1416V31.0875ZM55.5343 31.2498H55.4782L55.5343 31.3039V31.2498ZM8.30602 31.9533H8.24993L8.30602 32.0074V31.9533ZM8.08165 32.1698H8.02556L8.08165 32.2239V32.1698ZM41.9604 32.6568H41.9043L41.9604 32.7109V32.6568ZM55.5904 32.6568H55.5343L55.5904 32.7109V32.6568ZM12.2884 33.1438H12.1763L12.1202 33.3061L12.2884 33.1438ZM13.6346 33.3603H13.5785L13.6346 33.4144V33.3603ZM6.23066 33.9555H6.17457L6.23066 34.0096V33.9555ZM35.8465 34.7672H38.651V42.3973H27.9938L28.0499 39.5834L27.9938 38.6634V36.8236L28.0499 36.0119L27.9938 34.8213H30.574V39.7457H35.8465V34.7672ZM16.327 34.9296H16.2709L16.327 34.9837V34.9296ZM38.2023 34.9296H38.1462L38.2023 34.9837V34.9296ZM53.1224 35.0378H53.0663L53.1224 35.0919V35.0378ZM9.37174 35.5248H9.25956L9.20346 35.6872L9.37174 35.5248ZM46.7281 36.4989H46.5598V36.6612H46.7281V36.4989ZM6.17457 38.934H6.11848L6.17457 38.9881V38.934ZM5.55758 39.5293H5.50149L5.55758 39.5834V39.5293ZM5.38931 39.6916H5.33321L5.38931 39.7457V39.6916ZM30.2374 39.6916H30.1253L30.0692 39.854L30.2374 39.6916ZM30.574 39.9081H30.5179L30.574 39.9622V39.9081ZM4.94058 40.1245H4.88449L4.94058 40.1786V40.1245ZM45.9428 40.7198H45.8867L45.9428 40.7739V40.7198ZM46.055 40.828H45.9989L46.055 40.8821V40.828ZM46.1672 40.9362H46.1111L46.1672 40.9904V40.9362ZM11.2788 43.7502H11.2227L11.2788 43.8043V43.7502ZM12.4006 44.8325H12.3445L12.4006 44.8866V44.8325ZM10.3814 47.2135H10.3253L10.3814 47.2676V47.2135ZM15.6539 47.7546H15.5978L15.6539 47.8087V47.7546ZM12.008 48.6746H11.9519L12.008 48.7287V48.6746ZM12.2324 48.891H12.1763L12.2324 48.9451V48.891ZM12.625 49.2698H12.5689L12.625 49.3239V49.2698ZM43.8674 49.5404H43.8114L43.8674 49.5945V49.5404ZM43.8114 49.5945H43.7553L43.8114 49.6486V49.5945ZM43.6431 49.7569H43.587L43.6431 49.811V49.7569ZM43.4748 49.9192H43.4187L43.4748 49.9733V49.9192ZM43.4187 49.9733H43.3626L43.4187 50.0274V49.9733ZM43.2504 50.1356H43.1944L43.2504 50.1898V50.1356ZM37.4731 50.6227C37.3957 50.4311 37.3385 50.4398 37.1366 50.4062C37.2448 50.5799 37.2706 50.5799 37.4731 50.6227ZM1.8556 50.4603H1.79951L1.8556 50.5144V50.4603ZM16.7757 50.5144H16.7196L16.7757 50.5686V50.5144ZM42.8017 50.5686H42.7456L42.8017 50.6227V50.5686ZM2.30432 50.8932H2.24823L2.30432 50.9474V50.8932ZM37.9218 51.0015L37.7536 51.1097L37.9218 51.1638V51.0015ZM2.92132 51.4885H2.86523L2.92132 51.5426V51.4885ZM44.4844 53.8695H44.4284L44.4844 53.9236V53.8695ZM44.1479 54.0319H44.0918L44.1479 54.086V54.0319ZM40.9507 54.2483H40.8946L40.9507 54.3024V54.2483Z" stroke="black" stroke-width="0.999874"/>
</svg>
