<?xml version="1.0" encoding="UTF-8"?>
<svg width="1200pt" height="1200pt" version="1.1" viewBox="0 0 1200 1200" fill="currentColor" xmlns="http://www.w3.org/2000/svg">
 <path d="m547.2 249.6c-3.6016 0-12-1.1992-20.398-1.1992-8.3984 0-26.398 0-54-1.1992-20.398-1.1992-38.398 14.398-40.801 34.801l-28.801 255.6c-4.8008 30-20.398 148.8-25.199 184.8-2.3984 21.602-43.199 117.6-79.199 196.8l99.602 12c26.398-57.602 69.602-158.4 74.398-195.6 3.6016-25.199 12-87.602 19.199-134.4 36 15.602 70.801 37.199 81.602 49.199 2.3984 22.801-3.6016 98.398-12 165.6h96c8.3984-76.801 15.602-163.2 7.1992-192-9.6016-36-54-67.199-96-90l7.1992-67.199c6 13.199 13.199 21.602 22.801 28.801 26.398 18 98.398 27.602 139.2 32.398h4.8008c20.398 0 38.398-15.602 40.801-36 2.3984-22.801-13.199-43.199-36-45.602-39.602-4.8008-81.602-12-98.398-18-3.6016-10.801-9.6016-30-14.398-44.398-20.406-69.609-38.406-129.61-87.605-134.41z" />
 <path d="m527.76 29.676c52.969 2.375 93.98 47.238 91.605 100.2-2.375 52.969-47.238 93.98-100.21 91.605-52.965-2.375-93.977-47.238-91.602-100.21 2.375-52.965 47.238-93.977 100.2-91.602" />
 <path d="m284.4 548.4 46.801 4.8008c24 2.3984 44.398-14.398 46.801-38.398l25.199-237.6c2.3984-24-14.398-44.398-38.398-46.801l-46.801-4.8008c-24-2.3984-44.398 14.398-46.801 38.398l-25.199 237.6c-2.3984 22.801 14.398 44.402 38.398 46.801z" />
 <path d="m1050 1118.4-127.2-184.8c-1.1992-2.3984-2.3984-3.6016-3.6016-6l-49.199-118.8c-6-16.801-25.199-25.199-42-18l-134.4 57.602-146.4 1.1992c-9.6016 0-19.199 4.8008-26.398 13.199l-72 93.602c-7.1992 9.6016-18 14.398-30 13.199l-153.6-18c-13.199-1.1992-26.398 4.8008-32.398 16.801l-84 153.6c-12 21.602 3.6016 49.199 28.801 49.199h844.8c26.395-1.2031 41.992-31.203 27.594-52.805z" />
</svg>
