<?xml version="1.0" encoding="UTF-8"?>
<svg width="1200pt" height="1200pt" version="1.1" viewBox="0 0 1200 1200" fill="none" xmlns="http://www.w3.org/2000/svg">
 <path d="m535.67 218.66c0 70.938-57.508 128.45-128.44 128.45-70.938 0-128.45-57.508-128.45-128.45s57.508-128.44 128.45-128.44c70.934 0 128.44 57.504 128.44 128.44" fill="currentColor"/>
 <path d="m1024.4 570.73c0 70.934-57.504 128.44-128.44 128.44s-128.45-57.508-128.45-128.44c0-70.938 57.508-128.45 128.45-128.45s128.44 57.508 128.44 128.45" fill="currentColor"/>
 <path d="m940.67 735.17c-44.16 0-86.508 17.543-117.73 48.766-31.223 31.227-48.766 73.574-48.766 117.73v208.07h333v-208.07c0-44.16-17.543-86.508-48.766-117.73-31.227-31.223-73.578-48.766-117.73-48.766z" fill="currentColor"/>
 <path d="m757.5 370.11c-9.3516-10.699-22.578-17.242-36.762-18.184-14.18-0.94141-28.152 3.7969-38.84 13.172l-145.29 127.16-230.7-106.16c-7.7461-3.3984-16.203-4.8672-24.645-4.2891-7.2539-1.2305-14.586-1.9766-21.941-2.2266-44.156 0-86.508 17.543-117.73 48.766-31.223 31.227-48.766 73.574-48.766 117.73v563.02h418.93l-85.715-284.1v-265.71l97.328 45c9.418 4.2969 19.875 5.7734 30.113 4.2539 10.234-1.5234 19.812-5.9766 27.574-12.824l171.43-150h-0.003906c10.703-9.3555 17.246-22.578 18.184-36.762 0.94141-14.18-3.7969-28.152-13.168-38.84z" fill="currentColor"/>
</svg>
