<svg width="26" height="19" viewBox="0 0 26 19" fill="none" xmlns="http://www.w3.org/2000/svg">
<path d="M13.606 17.9009C13.2739 17.9009 12.9419 17.8455 12.6099 17.7349C12.2778 17.6242 11.9015 17.3835 11.481 17.0127L8.06934 14.1572C7.9974 14.1572 7.92546 14.16 7.85352 14.1655C7.78158 14.1655 7.7124 14.1655 7.646 14.1655C6.81592 14.1655 6.05225 14.0798 5.35498 13.9082C4.66325 13.7311 4.03792 13.4489 3.479 13.0615C2.92562 12.6742 2.44417 12.1595 2.03467 11.5176C1.50342 11.5231 1.06624 11.3875 0.723145 11.1108C0.380046 10.8286 0.208496 10.4523 0.208496 9.98193C0.208496 9.55583 0.35791 9.21273 0.656738 8.95264C0.9611 8.68701 1.34017 8.55973 1.79395 8.5708C2.17025 7.48617 2.65999 6.58968 3.26318 5.88135C3.86637 5.17301 4.55811 4.6473 5.33838 4.3042C6.12419 3.95557 6.97363 3.78125 7.88672 3.78125C8.58398 3.78125 9.23421 3.86149 9.8374 4.02197C10.4406 4.17692 11.0216 4.39274 11.5806 4.66943C12.145 4.94059 12.7178 5.25326 13.2988 5.60742C13.8854 5.96159 14.508 6.33789 15.1665 6.73633C15.6369 7.00195 16.063 7.23438 16.4448 7.43359C16.8322 7.63281 17.1974 7.73242 17.5405 7.73242C17.7785 7.73242 17.9832 7.68538 18.1548 7.59131C18.3319 7.4917 18.5117 7.35889 18.6943 7.19287L13.9961 4.20459C13.6475 3.98324 13.285 3.73975 12.9087 3.47412C12.5379 3.20296 12.2225 2.93734 11.9624 2.67725C11.7078 2.41162 11.5806 2.1709 11.5806 1.95508C11.5806 1.71159 11.6885 1.49023 11.9043 1.29102C12.1201 1.08626 12.3968 0.90918 12.7344 0.759766C13.0719 0.604818 13.4233 0.488607 13.7886 0.411133C14.1593 0.333659 14.4969 0.294922 14.8013 0.294922C15.5594 0.294922 16.312 0.491374 17.0591 0.884277C17.8062 1.27718 18.4785 1.89421 19.0762 2.73535L21.1514 5.66553C21.8486 5.64893 22.4795 5.7596 23.0439 5.99756C23.6084 6.23551 24.0954 6.57308 24.5049 7.01025C24.9144 7.44743 25.2298 7.95654 25.4512 8.5376C25.6725 9.11865 25.7832 9.73844 25.7832 10.397C25.7832 11.133 25.6642 11.7057 25.4263 12.1152C25.1938 12.5192 24.8424 12.8042 24.3721 12.9702C23.9072 13.1307 23.3289 13.2109 22.6372 13.2109C22.1613 13.2109 21.7241 13.1584 21.3257 13.0532C20.9272 12.9481 20.5537 12.807 20.2051 12.6299C19.8564 12.4528 19.5244 12.2591 19.209 12.0488C18.8493 12.2204 18.52 12.3892 18.2212 12.5552C17.9279 12.7212 17.6484 12.8844 17.3828 13.0449C17.1449 13.0007 16.9069 12.9702 16.6689 12.9536C16.431 12.9315 16.1875 12.9204 15.9385 12.9204C15.6341 12.9204 15.3298 12.9342 15.0254 12.9619C14.7266 12.9896 14.4388 13.0311 14.1621 13.0864L13.5977 11.7832C13 10.4053 12.2142 9.37874 11.2402 8.70361C10.2663 8.02848 9.14567 7.69092 7.87842 7.69092C7.47445 7.69092 7.11198 7.74072 6.79102 7.84033C6.47559 7.93994 6.31787 8.13639 6.31787 8.42969C6.31787 8.6123 6.37598 8.74788 6.49219 8.83643C6.6084 8.92497 6.76058 8.96924 6.94873 8.96924H7.95312C8.61719 8.96924 9.23421 9.09375 9.8042 9.34277C10.3797 9.5918 10.8944 9.95426 11.3481 10.4302C11.8019 10.9061 12.1838 11.4816 12.4937 12.1567L13.4399 14.2485C13.689 14.1987 13.9269 14.1489 14.1538 14.0991C14.3862 14.0438 14.6491 13.9995 14.9424 13.9663C15.2357 13.9276 15.5954 13.9082 16.0215 13.9082C16.8682 13.9082 17.5903 14.0216 18.188 14.2485C18.7856 14.4754 19.2422 14.7853 19.5576 15.1782C19.873 15.5656 20.0308 16 20.0308 16.4814C20.0308 16.9297 19.8647 17.2783 19.5327 17.5273C19.2007 17.7764 18.7275 17.9009 18.1133 17.9009C17.8366 17.9009 17.5986 17.876 17.3994 17.8262C17.2002 17.7764 16.9844 17.7293 16.752 17.6851C16.5195 17.6408 16.2179 17.6187 15.8472 17.6187C15.3049 17.6187 14.8677 17.6657 14.5356 17.7598C14.2091 17.8538 13.8993 17.9009 13.606 17.9009ZM7.27246 18.5732C6.38704 18.5732 5.67871 18.4045 5.14746 18.0669C4.62174 17.7349 4.35889 17.2922 4.35889 16.7388C4.35889 16.368 4.4917 16.0719 4.75732 15.8506C5.02848 15.6237 5.39372 15.5103 5.85303 15.5103C6.09098 15.5103 6.3234 15.5213 6.55029 15.5435C6.77718 15.5601 6.9847 15.5794 7.17285 15.6016C7.36654 15.6237 7.52979 15.6348 7.6626 15.6348C7.74561 15.6348 7.82031 15.632 7.88672 15.6265C7.95312 15.6209 8.01676 15.6154 8.07764 15.6099L10.6177 17.7515C10.2137 18.0171 9.74886 18.2191 9.22314 18.3574C8.69743 18.5013 8.0472 18.5732 7.27246 18.5732ZM22.1475 10.0732C22.3633 10.0732 22.5459 9.993 22.6953 9.83252C22.8503 9.6665 22.9277 9.47559 22.9277 9.25977C22.9277 9.04948 22.853 8.86963 22.7036 8.72021C22.5542 8.5708 22.3716 8.49609 22.1558 8.49609C21.9455 8.49609 21.7629 8.57633 21.6079 8.73682C21.4585 8.8973 21.3838 9.08268 21.3838 9.29297C21.3838 9.50326 21.4585 9.68587 21.6079 9.84082C21.7573 9.99577 21.9372 10.0732 22.1475 10.0732Z" fill="#3C3C43" fill-opacity="0.6"/>
</svg>
