<svg width="28" height="15" viewBox="0 0 28 15" fill="none" xmlns="http://www.w3.org/2000/svg">
<path d="M10.1318 5.71631C9.05827 5.71631 8.04281 5.51432 7.08545 5.11035C6.12809 4.70085 5.27311 4.08382 4.52051 3.25928C5.03516 2.60075 5.57471 2.06396 6.13916 1.64893C6.70915 1.23389 7.3234 0.926758 7.98193 0.727539C8.646 0.52832 9.38477 0.431478 10.1982 0.437012C11.0062 0.437012 11.7367 0.536621 12.3896 0.73584C13.0426 0.929525 13.6458 1.23112 14.1992 1.64062C14.7581 2.05013 15.2949 2.57031 15.8096 3.20117C15.057 4.03678 14.2048 4.66488 13.2529 5.08545C12.3011 5.50602 11.2607 5.71631 10.1318 5.71631ZM4.66992 11.1035C4.35449 10.9928 4.02799 10.9015 3.69043 10.8296C3.3584 10.7521 2.98486 10.7134 2.56982 10.7134H1.61523C1.12272 10.7134 0.740885 10.6359 0.469727 10.481C0.204102 10.326 0.0712891 10.1047 0.0712891 9.81689C0.0712891 9.61768 0.11556 9.44613 0.204102 9.30225C0.292643 9.15283 0.419922 8.99788 0.585938 8.8374C0.763021 8.66032 0.967773 8.45833 1.2002 8.23145C1.43262 7.99902 1.67611 7.7168 1.93066 7.38477C2.18522 7.05273 2.43424 6.64876 2.67773 6.17285C2.86035 5.81315 3.04574 5.47282 3.23389 5.15186C3.42757 4.82536 3.62126 4.51823 3.81494 4.23047C4.26872 4.70638 4.79443 5.12972 5.39209 5.50049C5.99528 5.87126 6.59017 6.16178 7.17676 6.37207C7.11589 6.91439 6.97201 7.47884 6.74512 8.06543C6.51823 8.64648 6.22493 9.20264 5.86523 9.73389C5.51107 10.2651 5.11263 10.7217 4.66992 11.1035ZM10.1484 12.9629C9.52311 12.9629 8.95312 12.8799 8.43848 12.7139C7.92383 12.5479 7.45345 12.3542 7.02734 12.1328C6.60124 11.9115 6.2028 11.7261 5.83203 11.5767C6.29688 11.1506 6.69808 10.6691 7.03564 10.1323C7.37874 9.59001 7.6499 9.02555 7.84912 8.43896C8.05387 7.85238 8.18115 7.26855 8.23096 6.6875C8.54085 6.76497 8.85628 6.82308 9.17725 6.86182C9.49821 6.90055 9.82471 6.91715 10.1567 6.91162C10.8208 6.91162 11.4766 6.83138 12.124 6.6709C12.1628 7.27962 12.2845 7.88005 12.4893 8.47217C12.694 9.05876 12.9707 9.61491 13.3193 10.1406C13.668 10.6663 14.0802 11.134 14.5562 11.5435C14.1799 11.7261 13.7731 11.9281 13.3359 12.1494C12.8988 12.3708 12.4146 12.5617 11.8833 12.7222C11.3576 12.8826 10.7793 12.9629 10.1484 12.9629ZM15.6104 11.062C15.151 10.647 14.7498 10.1794 14.4067 9.65918C14.0692 9.139 13.7952 8.59391 13.585 8.02393C13.3747 7.45394 13.2446 6.89225 13.1948 6.33887C13.549 6.20605 13.9198 6.02897 14.3071 5.80762C14.6945 5.58073 15.0736 5.32617 15.4443 5.04395C15.8206 4.75618 16.1637 4.45182 16.4736 4.13086C16.6452 4.40202 16.8389 4.74788 17.0547 5.16846C17.2705 5.5835 17.4946 6.03451 17.7271 6.52148C17.9595 7.00846 18.1891 7.49821 18.416 7.99072C18.6484 8.4777 18.867 8.92594 19.0718 9.33545C19.2765 9.74495 19.4536 10.077 19.603 10.3315C19.437 10.4312 19.2046 10.5086 18.9058 10.564C18.6069 10.6138 18.2943 10.6414 17.9678 10.647C17.5251 10.6746 17.11 10.7272 16.7227 10.8047C16.3408 10.8766 15.9701 10.9624 15.6104 11.062ZM2.42041 14.2993C1.83382 14.2993 1.34684 14.1803 0.959473 13.9424C0.577637 13.7044 0.386719 13.3696 0.386719 12.938C0.386719 12.617 0.508464 12.3735 0.751953 12.2075C1.00098 12.0415 1.27767 11.9281 1.58203 11.8672C1.83659 11.8063 2.07454 11.7593 2.2959 11.7261C2.52279 11.6929 2.74691 11.6431 2.96826 11.5767C3.49951 11.6652 4.04183 11.8285 4.59521 12.0664C5.1486 12.3099 5.66602 12.57 6.14746 12.8467C5.75456 13.2839 5.21777 13.6353 4.53711 13.9009C3.86198 14.1665 3.15641 14.2993 2.42041 14.2993ZM17.9263 14.3159C17.4393 14.3159 16.9523 14.255 16.4653 14.1333C15.9839 14.0116 15.5384 13.8372 15.1289 13.6104C14.7249 13.389 14.3957 13.1261 14.1411 12.8218C14.4344 12.6447 14.7637 12.4676 15.1289 12.2905C15.4997 12.119 15.876 11.9696 16.2578 11.8423C16.6452 11.715 17.0132 11.6265 17.3618 11.5767C17.5998 11.6043 17.8156 11.6265 18.0093 11.6431C18.2085 11.6597 18.4243 11.6763 18.6567 11.6929C18.8836 11.7261 19.0994 11.798 19.3042 11.9087C19.509 12.0138 19.675 12.1522 19.8022 12.3237C19.9295 12.5008 19.9932 12.7083 19.9932 12.9463C19.9932 13.3835 19.7967 13.721 19.4038 13.959C19.0164 14.1969 18.5239 14.3159 17.9263 14.3159ZM20.5244 9.98291C20.2533 9.44613 19.9793 8.90104 19.7026 8.34766C19.4315 7.78874 19.1935 7.31836 18.9888 6.93652C19.1548 6.81478 19.3153 6.67367 19.4702 6.51318C19.6307 6.34717 19.7773 6.13688 19.9102 5.88232C20.0485 5.62777 20.173 5.3068 20.2837 4.91943C20.4497 4.29411 20.6987 3.74626 21.0308 3.27588C21.3683 2.79997 21.7861 2.43197 22.2842 2.17188C22.7878 1.91178 23.3743 1.78174 24.0439 1.78174C24.8187 1.78174 25.4966 1.98649 26.0776 2.396C26.6642 2.8055 27.118 3.37826 27.439 4.11426C27.7599 4.84473 27.9204 5.69694 27.9204 6.6709C27.9204 7.09701 27.7682 7.46777 27.4639 7.7832C27.1595 8.0931 26.7279 8.33382 26.1689 8.50537C25.6156 8.67692 24.9598 8.7627 24.2017 8.7627C23.6759 8.7627 23.2139 8.82633 22.8154 8.95361C22.417 9.08089 22.0379 9.24137 21.6782 9.43506C21.3241 9.62321 20.9395 9.80583 20.5244 9.98291ZM24.2515 5.88232C24.4618 5.88232 24.6444 5.80485 24.7993 5.6499C24.9598 5.49495 25.04 5.30404 25.04 5.07715C25.04 4.86133 24.9598 4.67594 24.7993 4.521C24.6444 4.36051 24.4618 4.28027 24.2515 4.28027C24.0246 4.28027 23.8337 4.36051 23.6787 4.521C23.5238 4.67594 23.4463 4.86133 23.4463 5.07715C23.4463 5.30404 23.5238 5.49495 23.6787 5.6499C23.8337 5.80485 24.0246 5.88232 24.2515 5.88232Z" fill="#3C3C43" fill-opacity="0.6"/>
</svg>
